<svg xmlns="http://www.w3.org/2000/svg" version="1.1" xmlns:xlink="http://www.w3.org/1999/xlink" viewBox="0 0 200 200" width="200" height="200"><metadata><rdf:RDF xmlns:rdf="http://www.w3.org/1999/02/22-rdf-syntax-ns#" xmlns:dc="http://purl.org/dc/elements/1.1/"><rdf:Description><dc:creator>RealFaviconGenerator</dc:creator><dc:source>https://realfavicongenerator.net</dc:source></rdf:Description></rdf:RDF></metadata><rect width="200" height="200" fill="url('#gradient')"></rect><defs><linearGradient id="gradient" gradientTransform="rotate(45 0.5 0.5)"><stop offset="0%" stop-color="#0c9fe8"></stop><stop offset="100%" stop-color="#42cbe3"></stop></linearGradient></defs><g><g fill="#ffffff" transform="matrix(1.8386034912718205,0,0,1.8386034912718205,9.355089408001696,113.61708519143654)" stroke="#0e5278" stroke-width="0"><path d="M12.24-14.22L12.24-11.57L7.97-11.57L7.97 0L4.54 0L4.54-11.57L0.35-11.57L0.35-14.22L12.24-14.22ZM17.77 0.20L17.77 0.20Q15.34 0.20 13.84-1.25Q12.33-2.71 12.33-5.03L12.33-5.03L12.33-5.30Q12.33-6.92 12.93-8.16Q13.54-9.40 14.69-10.08Q15.84-10.76 17.42-10.76L17.42-10.76Q19.65-10.76 20.94-9.38Q22.23-8.00 22.23-5.53L22.23-5.53L22.23-4.25L15.68-4.25Q15.86-3.36 16.46-2.85Q17.05-2.34 18.00-2.34L18.00-2.34Q19.56-2.34 20.44-3.44L20.44-3.44L21.94-1.66Q21.33-0.81 20.20-0.31Q19.07 0.20 17.77 0.20ZM17.40-8.22L17.40-8.22Q15.96-8.22 15.68-6.31L15.68-6.31L19.00-6.31L19.00-6.56Q19.02-7.35 18.60-7.79Q18.18-8.22 17.40-8.22ZM28.02-2.34L28.02-2.34Q28.71-2.34 29.09-2.72Q29.47-3.10 29.46-3.77L29.46-3.77L32.55-3.77Q32.55-2.03 31.30-0.92Q30.06 0.20 28.10 0.20L28.10 0.20Q25.79 0.20 24.46-1.25Q23.13-2.70 23.13-5.25L23.13-5.25L23.13-5.39Q23.13-6.99 23.73-8.22Q24.32-9.44 25.43-10.10Q26.54-10.76 28.07-10.76L28.07-10.76Q30.13-10.76 31.34-9.62Q32.55-8.48 32.55-6.52L32.55-6.52L29.46-6.52Q29.46-7.34 29.06-7.78Q28.66-8.22 27.99-8.22L27.99-8.22Q26.71-8.22 26.49-6.59L26.49-6.59Q26.43-6.07 26.43-5.17L26.43-5.17Q26.43-3.57 26.81-2.96Q27.19-2.34 28.02-2.34ZM37.16-15L37.16-9.43Q38.21-10.76 39.85-10.76L39.85-10.76Q41.60-10.76 42.49-9.73Q43.38-8.69 43.40-6.67L43.40-6.67L43.40 0L40.10 0L40.10-6.59Q40.10-7.43 39.76-7.83Q39.41-8.22 38.59-8.22L38.59-8.22Q37.58-8.22 37.16-7.58L37.16-7.58L37.16 0L33.87 0L33.87-15L37.16-15ZM44.82-4.82L44.81-5.38Q44.81-6.96 45.43-8.20Q46.04-9.43 47.20-10.10Q48.35-10.76 49.90-10.76L49.90-10.76Q52.28-10.76 53.64-9.29Q55.01-7.82 55.01-5.29L55.01-5.29L55.01-5.18Q55.01-2.71 53.64-1.25Q52.27 0.20 49.92 0.20L49.92 0.20Q47.67 0.20 46.30-1.16Q44.93-2.51 44.82-4.82L44.82-4.82ZM48.12-5.77L48.11-5.18Q48.11-3.71 48.56-3.03Q49.02-2.34 49.92-2.34L49.92-2.34Q51.68-2.34 51.72-5.05L51.72-5.05L51.72-5.38Q51.72-8.22 49.90-8.22L49.90-8.22Q48.25-8.22 48.12-5.77L48.12-5.77ZM72.17-14.22L72.17-11.57L67.90-11.57L67.90 0L64.47 0L64.47-11.57L60.28-11.57L60.28-14.22L72.17-14.22ZM81.06 0L77.77 0Q77.60-0.32 77.46-0.95L77.46-0.95Q76.55 0.20 74.92 0.20L74.92 0.20Q73.43 0.20 72.38-0.71Q71.34-1.61 71.34-2.98L71.34-2.98Q71.34-4.70 72.61-5.58Q73.88-6.46 76.30-6.46L76.30-6.46L77.31-6.46L77.31-7.01Q77.31-8.47 76.05-8.47L76.05-8.47Q74.88-8.47 74.88-7.31L74.88-7.31L71.59-7.31Q71.59-8.85 72.90-9.80Q74.20-10.76 76.22-10.76Q78.24-10.76 79.41-9.78Q80.59-8.79 80.62-7.07L80.62-7.07L80.62-2.39Q80.63-0.94 81.06-0.17L81.06-0.17L81.06 0ZM75.71-2.15L75.71-2.15Q76.33-2.15 76.73-2.41Q77.14-2.68 77.31-3.01L77.31-3.01L77.31-4.70L76.36-4.70Q74.64-4.70 74.64-3.15L74.64-3.15Q74.64-2.71 74.94-2.43Q75.24-2.15 75.71-2.15ZM85.91-15L85.91 0L82.61 0L82.61-15L85.91-15ZM94.48 0L92.18-3.94L91.25-3.01L91.25 0L87.96 0L87.96-15.01L91.25-15.01L91.25-7.04L91.58-7.48L94.06-10.57L98.01-10.57L94.31-6.22L98.25 0L94.48 0Z"></path></g></g></svg>